<svg width="18" height="18" viewBox="0 0 18 18" fill="none" xmlns="http://www.w3.org/2000/svg">
<g filter="url(#filter0_d_3_238)">
<path d="M13.9955 7.88542C14.0163 8.05209 13.9643 8.18751 13.8498 8.31251L12.4445 9.70834C12.3821 9.78125 12.2988 9.84377 12.1947 9.88543C12.0906 9.93752 11.9969 9.96876 11.8929 9.97918C11.8824 9.97918 11.8616 9.97919 11.8304 9.98961C11.7992 9.98961 11.7471 10 11.6951 10C11.5598 10 11.3412 9.97919 11.0393 9.92711C10.7374 9.88544 10.3731 9.77084 9.93593 9.58334C9.49875 9.40626 9.00952 9.13543 8.45783 8.77084C7.90615 8.40626 7.32323 7.91666 6.69868 7.29166C6.20945 6.80208 5.79308 6.33333 5.4704 5.89583C5.14772 5.44792 4.88749 5.04166 4.68971 4.65625C4.49194 4.28125 4.34621 3.93751 4.24212 3.62501C4.14844 3.32293 4.07557 3.05208 4.04435 2.83333C4.01312 2.61458 3.9923 2.4375 4.00271 2.3125C4.01312 2.1875 4.01312 2.1146 4.01312 2.10419C4.02353 2.00002 4.05475 1.90626 4.1068 1.80209C4.15885 1.69793 4.21089 1.6146 4.28376 1.5521L5.68899 0.145849C5.78268 0.0520986 5.89718 0 6.0325 0C6.12618 0 6.20945 0.0312678 6.27191 0.0833511C6.34477 0.135434 6.40723 0.197937 6.44886 0.28127L7.58346 2.43753C7.64592 2.55211 7.66673 2.67709 7.63551 2.81251C7.60428 2.94793 7.55224 3.06253 7.45855 3.15628L6.93809 3.67711C6.92769 3.68753 6.90687 3.71875 6.89646 3.75C6.88605 3.78125 6.87564 3.81252 6.87564 3.83336C6.90687 3.97919 6.96932 4.15626 7.063 4.34376C7.14628 4.51043 7.2816 4.71877 7.45855 4.96877C7.63551 5.20835 7.88533 5.4896 8.20801 5.81251C8.5307 6.13543 8.81174 6.38544 9.05115 6.57294C9.30097 6.75003 9.50916 6.88542 9.6757 6.96875C9.84225 7.05208 9.96716 7.10419 10.0608 7.12502L10.1962 7.15627C10.2066 7.15627 10.2378 7.14584 10.269 7.13542C10.3003 7.125 10.3211 7.11461 10.3419 7.09377L10.9456 6.47916C11.0705 6.36458 11.2163 6.31253 11.3932 6.31253C11.5181 6.31253 11.6118 6.33336 11.6743 6.37502H11.6847L13.7249 7.58336C13.881 7.62503 13.9747 7.73959 13.9955 7.88542Z" fill="#414042"/>
</g>
<defs>
<filter id="filter0_d_3_238" x="0" y="0" width="18" height="18" filterUnits="userSpaceOnUse" color-interpolation-filters="sRGB">
<feFlood flood-opacity="0" result="BackgroundImageFix"/>
<feColorMatrix in="SourceAlpha" type="matrix" values="0 0 0 0 0 0 0 0 0 0 0 0 0 0 0 0 0 0 127 0" result="hardAlpha"/>
<feOffset dy="4"/>
<feGaussianBlur stdDeviation="2"/>
<feComposite in2="hardAlpha" operator="out"/>
<feColorMatrix type="matrix" values="0 0 0 0 0 0 0 0 0 0 0 0 0 0 0 0 0 0 0.25 0"/>
<feBlend mode="normal" in2="BackgroundImageFix" result="effect1_dropShadow_3_238"/>
<feBlend mode="normal" in="SourceGraphic" in2="effect1_dropShadow_3_238" result="shape"/>
</filter>
</defs>
</svg>

